<?xml version="1.0" encoding="utf-8"?>
<!-- Generator: Adobe Illustrator 22.0.1, SVG Export Plug-In . SVG Version: 6.00 Build 0)  -->
<svg version="1.1" id="Capa_1" xmlns="http://www.w3.org/2000/svg" xmlns:xlink="http://www.w3.org/1999/xlink" x="0px" y="0px"
	 viewBox="0 0 496 477" style="enable-background:new 0 0 496 477;" xml:space="preserve">
<style type="text/css">
	.st0{clip-path:url(#SVGID_2_);}
	.st1{clip-path:url(#SVGID_4_);}
</style>
<path d="M285.9,15.4c-4.4-6.6-12.9-8.3-19.3-4.6c-5.8-6.1-15.5-6.1-21.2,0c-9.2-5.3-21.2,1-21.6,11.9c-9-2.1-17.8,4.6-17.8,13.9
	v11.1c0,6.4,2.8,12.5,7.7,16.7l19.1,16.6c0.8,0.7,0.6,1.1,0.6,6.4c0,3.5,2.8,6.2,6.2,6.2h49.2c3.5,0,6.2-2.8,6.2-6.2
	c0-4.6-0.2-6,0.8-8.3l8.4-19.5c1.2-2.8,1.8-5.7,1.8-8.7V28.7C306,18.4,295.4,11.4,285.9,15.4z M296.6,51.1c0,1.7-0.4,3.4-1,5
	l-8.4,19.5c-1,2.4-1.5,4.9-1.5,7.5v1.4h-43v-2c0-3.2-1.4-6.2-3.8-8.4l-19.1-16.6c-2.8-2.5-4.4-6-4.4-9.7V36.6
	c0-6.5,10.2-6.6,10.2,0.1v8.1c0,0.4,0.1,0.9,0.3,1.3c0.2,0.4,0.5,0.8,0.8,1.1l1.4,1.2c0.5,0.4,1,0.6,1.6,0.7c0.6,0.1,1.2,0,1.7-0.2
	c0.5-0.2,1-0.6,1.3-1.2c0.3-0.5,0.5-1.1,0.5-1.7V23.2c0-6.5,10.2-6.6,10.2,0.1v5.2c0,1.7,1.4,3.1,3.1,3.1h1.4c1.7,0,3.1-1.4,3.1-3.1
	v-8c0-6.5,10.2-6.6,10.2,0.1v7.9c0,1.7,1.4,3.1,3.1,3.1h1.4c1.7,0,3.1-1.4,3.1-3.1v-5.4c0-6.5,10.2-6.6,10.2,0.1v5.2
	c0,1.7,1.4,3.1,3.1,3.1h1.4c1.7,0,3.1-1.4,3.1-3.1c0-6.5,10.2-6.6,10.2,0.1V51.1z"/>
<g>
	<defs>
		<rect id="SVGID_1_" y="124" width="100" height="114.3"/>
	</defs>
	<clipPath id="SVGID_2_">
		<use xlink:href="#SVGID_1_"  style="overflow:visible;"/>
	</clipPath>
	<g class="st0">
		<path d="M83.2,146v-2.1c0-8.5-9-15-18.5-12.8c-5.7-9.7-21-9.3-26.3,0.1c-9.2-2.1-18.4,4.1-18.4,12.7v24.6c-4.5-1.4-9.7-1-13.9,1.7
			c-6.6,4.3-8,12.4-3.2,18.2l26.8,32.9c0.7,0.8,1.5,1.5,2.5,1.9c1,0.5,2.1,0.7,3.3,0.7h49.8c3.3,0,6.2-2,7-4.8l6.7-25.6
			c0.8-2.9,1.2-5.9,1.2-8.9V159C100,151,92.1,144.9,83.2,146z M89.3,184.7c0,2.3-0.3,4.6-0.9,6.8l-6.1,23.2H37.2L11.5,183
			c-3.2-4,3.4-8.4,6.6-4.4l6.1,7.4c2,2.5,6.5,1.2,6.5-1.8v-40.3c0-5,8.2-4.8,8.2,0.1V174c0,1.7,1.6,3.1,3.6,3.1h1.5
			c2,0,3.6-1.4,3.6-3.1v-36.9c0-5,8.2-4.8,8.2,0.1V174c0,1.7,1.6,3.1,3.6,3.1h1.5c2,0,3.6-1.4,3.6-3.1v-30.2c0-5,8.2-4.8,8.2,0.1
			V174c0,1.7,1.6,3.1,3.6,3.1h1.5c2,0,3.6-1.4,3.6-3.1v-14.9c0-5.1,8.2-5,8.2-0.1L89.3,184.7L89.3,184.7z"/>
	</g>
</g>
<path d="M124,462.8l13.7,0c1,0,2-0.1,3-0.3l23.2-5.4c5.9-1.4,10.1-6.6,10.1-12.6v-40.2c0-4.7-2.5-9-6.6-11.3l-19.1-10.7
	c-6.7-3.8-13.1-1.1-18,4.8l-28.3-10.9c-7.4-2.8-15.7,0.7-18.7,8c-2.9,7.4,0.7,15.7,8.2,18.6l15.4,3.6l-18.4-1.8
	c-8,0-14.5,6.4-14.5,14.3s6.5,14.3,14.5,14.3h17.1c-0.7,5.1,1.7,10,5.9,12.7C108.9,454.3,115.2,462.8,124,462.8z M124,453.4
	c-4.9,0-4.9-7.1,0-7.1c1.7,0,3.1-1.4,3.1-3.1v-1.3c0-1.7-1.4-3.1-3.1-3.1h-5.5c-4.9,0-4.9-7.1,0-7.1h5.5c1.7,0,3.1-1.4,3.1-3.1V427
	c0-1.7-1.4-3.1-3.1-3.1H88.5c-6.7,0-6.7-9.8,0-9.8H124c1.7,0,3.1-1.4,3.1-3.1v-2.3c0-0.6-0.2-1.2-0.5-1.8c-0.4-0.5-0.9-0.9-1.5-1.1
	l-30.3-11.7c-6.2-2.4-2.6-11.6,3.8-9.1l32.5,12.5c0.6,0.2,1.3,0.3,1.9,0.1c0.6-0.2,1.2-0.5,1.6-1l4.3-5.2c1.1-1.4,3.2-1.8,4.8-0.9
	l19.1,10.7c1.1,0.6,1.8,1.8,1.8,3.1v40.2c0,1.7-1.2,3.1-2.8,3.5l-23.2,5.4c-0.3,0.1-0.6,0.1-0.9,0.1L124,453.4L124,453.4z"/>
<path d="M492.6,180.4l-25.4-39.2c-2.3-3.6-6.2-5.7-10.5-5.7h-51c-5.4,0-9.7,4.4-9.7,9.7v1.4c0,7.7,6.2,13.9,13.9,13.9h34l-3.2,8.3
	H421c-8.4,0-15.3,6.9-15.3,15.3c0,5.4,4.4,9.7,9.7,9.7h22.8c0.5,0,1,0.1,1.5,0.3l17.3,6.7v12.4H496v-21.6
	C496,187.7,494.8,183.8,492.6,180.4z M487.7,205h-22.2v-4.1c0-3.5-2.1-6.5-5.3-7.8l-17.3-6.7c-1.4-0.6-3-0.9-4.5-0.8h-22.8
	c-0.8,0-1.4-0.6-1.4-1.4c0-3.8,3.1-6.9,6.9-6.9h19.7c3.4,0,6.6-2.2,7.8-5.4l4.3-11.2c1.6-4.1-1.5-8.5-5.8-8.5h-37.1
	c-3.1,0-5.6-2.5-5.6-5.6v-1.4c0-0.8,0.6-1.4,1.4-1.4h51c1.4,0,2.7,0.7,3.5,1.9l25.4,39.2c1.3,2,2,4.4,2,6.8V205z"/>
<g>
	<defs>
		<rect id="SVGID_3_" x="319" y="369" width="100" height="100"/>
	</defs>
	<clipPath id="SVGID_4_">
		<use xlink:href="#SVGID_3_"  style="overflow:visible;"/>
	</clipPath>
	<g class="st1">
		<path d="M323.1,443.6l25.2,23.7c1.2,1.1,2.7,1.7,4.3,1.7H399c2.8,0,5.2-1.8,6-4.5l6.2-21c0.6-2.1,0.9-4.3,0.9-6.4v-7.2
			c0-0.8,0.1-1.6,0.3-2.4l6.2-26.1c2-8.3-4.4-16.2-12.8-16.1c-0.8-4.9-4.4-9.2-9.7-10.5c-7-1.7-14.1,2.5-15.9,9.5l-3.3,20.6
			l-4.2-25.8c-1.6-7-8.7-11.4-15.7-9.8c-5.8,1.3-9.8,6.3-10.1,12c-8.3,0.2-14.3,7.9-12.5,16l6.1,26.7c-5.3-4.4-13.1-3.9-17.9,1.1
			C317.6,430.3,317.9,438.6,323.1,443.6z M329.4,431.5L329.4,431.5c1.4-1.5,3.8-1.6,5.2-0.2l10.4,9.7c2,1.9,5.3,0.5,5.3-2.3v-13.6
			c0-0.2,0-0.5-0.1-0.7l-6.7-29.3c-1.1-4.8,6.2-6.4,7.2-1.6l5.9,26.1c0.2,0.7,0.5,1.3,1.1,1.8c0.6,0.4,1.2,0.7,2,0.7h1.7
			c2,0,3.5-1.9,3-3.8l-8.1-35.4c-1.1-4.8,6.1-6.5,7.2-1.7l8.8,38.4c0.2,0.7,0.5,1.3,1.1,1.7c0.6,0.4,1.2,0.7,1.9,0.7h2.6
			c0.7,0,1.4-0.2,1.9-0.7c0.5-0.4,0.9-1,1.1-1.7l8.3-33.1c1.2-4.8,8.4-3,7.2,1.8l-7.4,29.8c-0.5,2,1,3.9,3,3.9h1.9
			c0.7,0,1.4-0.2,1.9-0.7c0.6-0.4,0.9-1,1.1-1.7l5.3-22.1c1.1-4.8,8.4-3.1,7.2,1.7l-6.2,26.1c-0.4,1.5-0.5,3-0.5,4.5v7.2
			c0,1.3-0.2,2.5-0.5,3.8l-5.5,18.7h-42.8l-24.3-22.9C328.1,435.3,328,433,329.4,431.5z"/>
	</g>
</g>
<path d="M131.4,361.9c1.1,2.5,4,3.8,6.5,2.7l41.5-17.3c2.5-1.1,3.8-4,2.7-6.5c-1.1-2.5-4-3.8-6.5-2.7l-36.9,15.4l-15.4-36.9
	c-1.1-2.5-4-3.8-6.5-2.7c-2.6,1.1-3.8,4-2.7,6.5L131.4,361.9z M232.6,112.5L131.4,358.1l9.2,3.8l101.2-245.6c1-2.4-0.2-5.2-2.6-6.1
	l-0.5-0.2C236.3,108.9,233.6,110,232.6,112.5z"/>
<path d="M117.5,169.4c-2,1.9-2,5.1,0,7.1l31.5,31.8c1.8,1.9,4.8,2.2,6.9,0.5c2.3-1.9,2.5-5.3,0.4-7.4L128.1,173l28.3-28
	c1.9-1.8,2.2-4.8,0.5-6.9c-1.9-2.3-5.3-2.5-7.4-0.4L117.5,169.4z M386.7,169.2L121,168l0,10l265.7,1.2c2.6,0,4.7-2.1,4.7-4.7l0-0.6
	C391.4,171.4,389.3,169.2,386.7,169.2z"/>
<path d="M335.7,373.5c2.7-0.7,4.3-3.4,3.7-6.1l-10.8-43.7c-0.7-2.7-3.4-4.3-6.1-3.7c-2.7,0.7-4.3,3.4-3.7,6.1l9.6,38.8l-38.8,9.6
	c-2.8,0.7-4.5,3.7-3.5,6.5c0.9,2.5,3.6,3.8,6.1,3.1L335.7,373.5z M104.5,235.7L331.9,373l5.2-8.6L109.6,227.2
	c-2.2-1.3-5.1-0.6-6.5,1.6l-0.3,0.5C101.5,231.5,102.2,234.4,104.5,235.7z"/>
<path d="M291.6,107.4c-2.5-1.2-5.5-0.1-6.7,2.4l-19.4,40.6c-1.2,2.5-0.1,5.5,2.4,6.7s5.5,0.1,6.7-2.4l17.2-36.1l36.1,17.2
	c2.5,1.2,5.5,0.1,6.7-2.4c1.2-2.5,0.1-5.5-2.4-6.7L291.6,107.4z M382.9,360.6l-88.8-250.4l-9.4,3.3L373.5,364c0.9,2.5,3.6,3.7,6,2.9
	l0.5-0.2C382.5,365.8,383.8,363.1,382.9,360.6z"/>
<path d="M406,215.1c0.3-2.7-1.7-5.2-4.4-5.5l-44.7-4.9c-2.7-0.3-5.2,1.7-5.5,4.4c-0.3,2.7,1.7,5.2,4.4,5.5l39.8,4.4l-4.4,39.8
	c-0.3,2.7,1.7,5.2,4.4,5.5c2.7,0.3,5.2-1.7,5.5-4.4L406,215.1z M197,384.8l207.2-166.3l-6.3-7.8L190.7,377c-2,1.6-2.4,4.6-0.7,6.6
	l0.4,0.5C192,386.1,195,386.4,197,384.8z"/>
<path d="M191.8,59.3c0.7-2.7-0.9-5.5-3.6-6.1L144.9,42c-2.6-0.7-5.3,0.6-6.2,3.1c-1,2.8,0.6,5.8,3.5,6.5l38.7,10c0,0,0,0,0,0.1
	l-9.9,38.4c-0.7,2.6,0.6,5.3,3.1,6.2c2.8,1,5.8-0.6,6.5-3.5L191.8,59.3z M91.6,120.2l93.9-55.5c2.2-1.3,3-4.2,1.7-6.5l-0.3-0.5
	c-1.3-2.2-4.2-3-6.5-1.7l-93.9,55.5c-2.2,1.3-3,4.2-1.7,6.5l0.3,0.5C86.5,120.8,89.4,121.5,91.6,120.2z"/>
<path d="M417.8,117.3c2.7-0.4,4.6-3,4.1-5.7l-7.1-44.4c-0.4-2.7-3-4.6-5.7-4.1c-2.7,0.4-4.6,3-4.1,5.7l6.4,39.5l-39.5,6.4
	c-2.7,0.4-4.6,3-4.1,5.7c0.4,2.7,3,4.6,5.7,4.1L417.8,117.3z M321.9,49.8l92.2,66.7l5.9-8.1l-92.2-66.7c-2.1-1.5-5.1-1.1-6.6,1.1
	l-0.3,0.5C319.3,45.3,319.8,48.3,321.9,49.8z"/>
<path d="M412.6,345.3c1.3,2.4,4.4,3.3,6.8,1.9l39.3-21.8c2.4-1.3,3.3-4.4,1.9-6.8s-4.4-3.3-6.8-1.9l-35,19.4l-19.3-34.8
	c-1.3-2.3-4.1-3.4-6.5-2.4c-2.7,1.2-3.8,4.5-2.4,7L412.6,345.3z M443.5,232.2l-31.3,109.4l9.6,2.8l31.3-109.4
	c0.7-2.5-0.7-5.1-3.2-5.8l-0.6-0.2C446.8,228.2,444.2,229.7,443.5,232.2z"/>
<path d="M186.5,435.7c-1.9,2-1.9,5.1,0,7.1l31.7,31.6c1.8,1.8,4.8,2.1,6.9,0.5c2.3-1.9,2.4-5.3,0.4-7.4l-28.3-28.2l28.1-28.2
	c1.8-1.8,2.1-4.8,0.5-6.9c-1.9-2.3-5.3-2.4-7.4-0.4L186.5,435.7z M303.8,434L190,434.2l0,10l113.8-0.2c2.6,0,4.7-2.1,4.7-4.7l0-0.6
	C308.5,436.1,306.4,434,303.8,434z"/>
<path d="M56.2,243.5c-2.5-1.2-5.5-0.1-6.7,2.3l-19.4,40.3c-1.1,2.4-0.4,5.4,1.8,6.7c2.6,1.5,5.8,0.5,7.1-2.1l17.3-36c0,0,0,0,0.1,0
	l36,17.3c2.5,1.2,5.5,0.1,6.7-2.3c1.2-2.5,0.1-5.5-2.3-6.7L56.2,243.5z M96.5,353.7L58.7,246.4c0,0,0,0-0.1,0l-9.3,3.3
	c0,0,0,0,0,0.1L87,357c0.9,2.5,3.6,3.7,6,2.9l0.5-0.2C96,358.8,97.3,356.1,96.5,353.7z"/>
</svg>
